<svg xmlns="http://www.w3.org/2000/svg" viewBox="0 0 1200 630" role="img" aria-labelledby="title desc">
  <title id="title">Omar Salama portfolio preview</title>
  <desc id="desc">Open graph preview for Omar Salama AI Engineer portfolio.</desc>
  <defs>
    <linearGradient id="g" x1="0" x2="1" y1="0" y2="1"><stop stop-color="#38bdf8"/><stop offset="1" stop-color="#818cf8"/></linearGradient>
  </defs>
  <rect width="1200" height="630" fill="#0f172a"/>
  <circle cx="1020" cy="90" r="260" fill="#818cf8" opacity=".18"/>
  <circle cx="170" cy="560" r="240" fill="#38bdf8" opacity=".16"/>
  <rect x="78" y="78" width="1044" height="474" rx="24" fill="rgba(17,24,39,.82)" stroke="rgba(226,232,240,.18)"/>
  <text x="130" y="190" fill="#f8fafc" font-family="Outfit, Arial" font-size="74" font-weight="800">Omar Salama</text>
  <text x="132" y="250" fill="#e0f2fe" font-family="JetBrains Mono, monospace" font-size="28">AI Engineer | Computer Vision | NLP</text>
  <text x="132" y="338" fill="#cbd5e1" font-family="Outfit, Arial" font-size="34">Real-time healthcare AI, deployed ML systems,</text>
  <text x="132" y="384" fill="#cbd5e1" font-family="Outfit, Arial" font-size="34">and research-backed computer vision projects.</text>
  <g font-family="Outfit, Arial" font-weight="800" font-size="34">
    <rect x="132" y="448" width="222" height="58" rx="29" fill="rgba(56,189,248,.14)" stroke="#38bdf8"/>
    <text x="243" y="487" text-anchor="middle" fill="#e0f2fe">96.69% AUROC</text>
    <rect x="382" y="448" width="160" height="58" rx="29" fill="rgba(34,197,94,.14)" stroke="#22c55e"/>
    <text x="462" y="487" text-anchor="middle" fill="#bbf7d0">37+ FPS</text>
    <rect x="570" y="448" width="180" height="58" rx="29" fill="rgba(250,204,21,.14)" stroke="#facc15"/>
    <text x="660" y="487" text-anchor="middle" fill="#fef9c3">AWS ML</text>
  </g>
  <path d="M876 164 L1014 244 L1014 404 L876 484 L738 404 L738 244 Z" fill="none" stroke="url(#g)" stroke-width="10"/>
  <circle cx="876" cy="324" r="76" fill="url(#g)" opacity=".28"/>
</svg>
